<svg xmlns="http://www.w3.org/2000/svg" width="45" height="40" fill="none"><rect width="43.83" height="39.721" x=".404" y=".284" fill="#323142" rx="8.93"/><mask id="a" fill="#fff"><path d="M29.282 21.36h-6.34v6.43h-2.53v-6.43h-6.31v-2.29h6.31v-6.46h2.53v6.46h6.34v2.291Z"/></mask><path fill="#000" d="M29.282 21.36h-6.34v6.43h-2.53v-6.43h-6.31v-2.29h6.31v-6.46h2.53v6.46h6.34v2.291Z"/><path fill="#fff" d="M29.282 21.36v4.11h4.109v-4.11h-4.11Zm-6.34 0v-4.109h-4.109v4.11h4.11Zm0 6.43v4.108h4.11V27.79h-4.11Zm-2.53 0h-4.109v4.108h4.11V27.79Zm0-6.43h4.11v-4.109h-4.11v4.11Zm-6.31 0H9.993v4.11h4.11v-4.11Zm0-2.291v-4.11H9.993v4.11h4.11Zm6.31 0v4.108h4.11V19.07h-4.11Zm0-6.46V8.502h-4.109v4.109h4.11Zm2.53 0h4.11V8.502h-4.11v4.109Zm0 6.46h-4.109v4.108h4.11V19.07Zm6.34 0h4.109v-4.11h-4.11v4.11Zm0-1.818h-6.34v8.218h6.34v-8.218Zm-10.449 4.11v6.428h8.218V21.36h-8.218Zm4.11 2.32h-2.53v8.217h2.53V23.68Zm1.578 4.108V21.36h-8.218v6.43h8.218Zm-4.109-10.538h-6.31v8.218h6.31v-8.218Zm-2.2 4.11v-2.293H9.993v2.292h8.219Zm-4.11 1.816h6.31V14.96h-6.31v8.218Zm10.42-4.108v-6.46h-8.219v6.46h8.218Zm-4.11-2.35h2.53V8.5h-2.53v8.218Zm-1.579-4.11v6.46h8.218v-6.46h-8.218Zm4.11 10.568h6.339V14.96h-6.34v8.218Zm2.23-4.108v2.291h8.218v-2.29h-8.218Z" mask="url(#a)"/></svg>