<svg xmlns="http://www.w3.org/2000/svg" width="101" height="98" fill="none"><g stroke="#665AB5" stroke-linecap="round" stroke-linejoin="round" stroke-miterlimit="1.5" stroke-width="2.65"><path d="M71.667 10.711c9.136 13.675 14.353 29.303 9.08 45.284-4.76 14.425-17.734 22.97-32.631 12.267-7.053-5.066-11.629-15.29-7.047-22.886 5.105-8.462 16.434-.965 19.507 4.794 7.179 13.451 2.528 31.59-13.264 39.783-18.701 9.704-26.75-8.845-26.602-8.85"/><path d="M91.026 14.596c-1.925.375-3.81-.003-5.714-.293-6.25-.954-12.642-3.77-16.525-8.411 2.237 5.953 2.898 14.357-1.863 19.399"/></g></svg>