<svg xmlns="http://www.w3.org/2000/svg" width="397" height="280" fill="none"><g opacity=".25"><path stroke="#1C186C" stroke-linecap="round" stroke-linejoin="round" stroke-width="4.64" d="M248.774 270.945a21.236 21.236 0 0 1 15.015-5.998c5.796.049 11.082 2.388 15.021 6.201"/><path stroke="#1C186C" stroke-linecap="round" stroke-linejoin="round" stroke-width="4.64" d="M277.882 262.31c-4.193-2.787-9.012-4.376-14.125-4.424-5.992-.05-11.556 2.042-16.185 5.675-1.875 1.475-2.406 4.363-1.198 6.59l1.266 2.335 5.24 9.507s3.72 6.767 7.226 13.149c1.695 3.083 5.637 3.13 7.319.093l12.514-22.544 1.232-2.224c1.212-2.203.669-5.136-1.242-6.636-.643-.557-1.345-1.05-2.047-1.521Z"/><path fill="#201D67" d="M270.744 275.399a1.75 1.75 0 0 0 1.464.002 2.02 2.02 0 0 0 .645-.449c.351-.406.567-.941.567-1.498a2.174 2.174 0 0 0-.564-1.498c-.371-.407-.839-.622-1.366-.622-.527-.001-.995.213-1.366.619a2.21 2.21 0 0 0-.568 1.497 2.314 2.314 0 0 0 .564 1.499c.176.214.39.364.624.45Zm-7.687-2.105a1.75 1.75 0 0 0 1.464.001 2.23 2.23 0 0 0 .644-.449c.352-.406.567-.941.568-1.497 0-.578-.194-1.092-.565-1.499-.37-.407-.838-.621-1.365-.622-.527 0-.996.213-1.367.619-.371.407-.567.92-.567 1.498a2.31 2.31 0 0 0 .564 1.499c.175.192.37.342.624.45Zm-8.356 1.66c.722.793 2.01.794 2.733.003.351-.406.567-.941.567-1.497a2.175 2.175 0 0 0-.564-1.499c-.37-.407-.839-.622-1.366-.622a1.66 1.66 0 0 0-.722.17 2.25 2.25 0 0 0-.644.449c-.372.406-.567.92-.568 1.498.019.535.233 1.091.564 1.498Zm3.447 7.752c.097.278.233.492.409.706.721.793 2.009.794 2.732.003a2.24 2.24 0 0 0 .411-.706c.098-.256.156-.534.157-.791 0-.278-.058-.557-.156-.792a2.49 2.49 0 0 0-.409-.707c-.37-.407-.838-.621-1.365-.622-.254 0-.508.064-.722.17a2.24 2.24 0 0 0-.645.449c-.371.406-.567.92-.567 1.498-.001.256.057.535.155.792Zm7.709.008c.097.257.233.492.409.707.741.792 2.029.794 2.732.003.176-.214.313-.428.411-.706.098-.257.156-.535.157-.792 0-.578-.194-1.092-.565-1.499a2.268 2.268 0 0 0-.643-.45 1.814 1.814 0 0 0-.742-.172c-.527 0-.995.213-1.366.619-.176.214-.313.45-.411.706a1.914 1.914 0 0 0-.157.792c.019.257.058.535.175.792Z"/><path stroke="#1C186C" stroke-linecap="round" stroke-linejoin="round" stroke-width="4.64" d="M184.619 207.25a7.048 7.048 0 0 0 3.791-.123 7.573 7.573 0 0 0 3.277-2.096 2.472 2.472 0 0 0 .605-1.636 2.478 2.478 0 0 0-.602-1.638l-2.222-2.528m-19.39-8.238a9.35 9.35 0 0 1 .157-4.199 8.769 8.769 0 0 1 1.959-3.611c.194-.214.426-.385.68-.501a1.916 1.916 0 0 1 1.607.002c.255.117.486.288.68.503l2.261 2.527m10.519-.502a9.342 9.342 0 0 1-1.225-4.667 9.156 9.156 0 0 1 .598-3.247 8.514 8.514 0 0 1 1.692-2.743.71.71 0 0 1 .498-.21c.184 0 .361.075.497.211a7.938 7.938 0 0 1 1.5 2.463c.322.671.546 1.393.662 2.141.044.455.043.914-.002 1.369-.353 2.081-1.322 3.976-2.757 5.39 1.33-1.532 3.077-2.551 4.979-2.905a5.993 5.993 0 0 1 1.249.002 6.41 6.41 0 0 1 1.951.772 7.323 7.323 0 0 1 2.223 1.8c.123.15.192.344.191.546a.857.857 0 0 1-.192.546c-1.462 1.564-3.425 2.438-5.467 2.434a7.327 7.327 0 0 1-4.214-1.396"/><path stroke="#1C186C" stroke-linecap="round" stroke-linejoin="round" stroke-width="4.64" d="M165.527 211.959c.231.29.493.549.78.771a6.786 6.786 0 0 0 2.636 1.12c.939.178 1.9.148 2.827-.087a17.498 17.498 0 0 0 6.248-2.326c3.647-1.926 6.712-4.961 8.831-8.743 1.879-3.803 2.945-8.025 3.116-12.346 0-.299.334-2.546.12-2.696l-2.164-2.442c-.136-.236-2.166-.003-2.439.104-3.96.109-7.843 1.226-11.343 3.262-3.472 2.244-6.27 5.551-8.051 9.515-1.721 3.915-3.68 10.141-.561 13.868Z"/><path stroke="#1C186C" stroke-linecap="round" stroke-linejoin="round" stroke-width="4.64" d="M179.115 209.491c-.788-2.922-2.212-5.589-4.148-7.773-1.945-2.179-4.35-3.799-7.002-4.716"/><path fill="#201D67" d="M170.682 209.418c.182.207.4.372.641.485.242.113.501.171.763.172.263 0 .523-.058.764-.17.242-.112.46-.277.642-.484a2.22 2.22 0 0 0 .516-1.096c.07-.413.027-.839-.122-1.226a2.108 2.108 0 0 0-.719-.948 1.834 1.834 0 0 0-1.076-.357c-.383 0-.757.123-1.077.354-.32.232-.57.561-.72.947a2.327 2.327 0 0 0-.125 1.226c.069.413.248.794.513 1.097Z"/><path stroke="#1C186C" stroke-linecap="round" stroke-linejoin="round" stroke-width="4.64" d="m82.003 296.941 20.008-21.894c2.13-2.33 2.134-6.097.009-8.432s-5.56-2.338-7.69-.008l-20.007 21.894c-2.13 2.33-2.134 6.097-.01 8.432 2.125 2.335 5.56 2.339 7.69.008Z"/><path stroke="#1C186C" stroke-linecap="round" stroke-linejoin="round" stroke-width="4.64" d="M97.819 272.133c-2.306 2.523-3.125 1.623-5.45 4.146-2.305 2.523-1.487 3.422-3.792 5.967-2.306 2.522-3.144 1.623-5.45 4.146-2.305 2.523-1.487 3.444-3.792 5.967m9.575 7.115 15.396-16.848c2.56-2.801 2.565-7.317.011-10.123l-24.62 26.939c2.535 2.828 6.672 2.833 9.212.032Zm-1.485-35.399-15.397 16.847c-2.56 2.801-2.565 7.317-.011 10.123l24.62-26.939c-2.535-2.828-6.672-2.832-9.212-.031ZM357.89 61.326a21.235 21.235 0 0 1 15.014-5.997c5.796.049 11.083 2.387 15.021 6.2"/><path stroke="#1C186C" stroke-linecap="round" stroke-linejoin="round" stroke-width="4.64" d="M386.997 52.69c-4.193-2.787-9.012-4.376-14.125-4.424-5.992-.05-11.556 2.042-16.185 5.675-1.875 1.475-2.405 4.364-1.198 6.59l1.266 2.335 5.24 9.508 7.226 13.148c1.695 3.084 5.637 3.13 7.319.094l12.514-22.544 1.232-2.225c1.213-2.203.669-5.135-1.242-6.635-.643-.558-1.345-1.05-2.047-1.522Z"/><path fill="#201D67" d="M379.86 65.782a1.75 1.75 0 0 0 1.463.002c.254-.107.45-.257.645-.45.352-.406.567-.94.567-1.497a2.174 2.174 0 0 0-.564-1.498c-.37-.407-.838-.622-1.365-.622-.527-.001-.996.212-1.367.619a2.217 2.217 0 0 0-.568 1.497c0 .557.214 1.092.565 1.499.175.214.39.364.624.45Zm-7.688-2.107a1.75 1.75 0 0 0 1.464.002c.234-.107.449-.257.644-.45.352-.405.567-.94.568-1.497a2.174 2.174 0 0 0-.564-1.498c-.371-.407-.839-.622-1.366-.623-.527 0-.995.213-1.367.62-.371.406-.567.92-.567 1.497a2.309 2.309 0 0 0 .564 1.499c.176.193.371.343.624.45Zm-8.354 1.662a1.868 1.868 0 0 0 2.732.003c.352-.406.567-.941.567-1.497a2.17 2.17 0 0 0-.564-1.5c-.37-.406-.838-.62-1.365-.621-.254 0-.508.063-.723.17a2.234 2.234 0 0 0-.644.449c-.371.406-.567.92-.568 1.497.019.536.233 1.092.565 1.5Zm3.445 7.75c.097.278.234.492.409.706a1.868 1.868 0 0 0 2.732.003c.176-.214.313-.428.411-.706.098-.256.157-.535.157-.791 0-.279-.058-.557-.155-.792a2.541 2.541 0 0 0-.409-.707c-.371-.407-.839-.622-1.366-.622-.254 0-.507.064-.722.17a2.252 2.252 0 0 0-.645.449c-.371.406-.567.92-.567 1.498a2.27 2.27 0 0 0 .155.791Zm7.71.008c.097.257.234.492.409.707.741.792 2.029.793 2.732.002.176-.213.313-.427.411-.705.098-.257.157-.535.157-.792a2.174 2.174 0 0 0-.564-1.499 2.243 2.243 0 0 0-.644-.45 1.8 1.8 0 0 0-.741-.172c-.527 0-.996.213-1.367.62a2.496 2.496 0 0 0-.411.705 1.912 1.912 0 0 0-.157.792c.019.257.058.535.175.792Zm-.729 6.142c-.371-.407-.839-.621-1.366-.622-.254 0-.507.064-.722.17a2.255 2.255 0 0 0-.645.45 2.493 2.493 0 0 0-.41.705 2.276 2.276 0 0 0-.157.792 2.266 2.266 0 0 0 .564 1.499c.546.578 1.385.793 2.107.451a1.99 1.99 0 0 0 .645-.448 2.31 2.31 0 0 0 .567-1.498 2.08 2.08 0 0 0-.155-.792 3.185 3.185 0 0 0-.428-.707Z"/><path stroke="#1C186C" stroke-linecap="round" stroke-linejoin="round" stroke-width="4.64" d="M278.488 28.593a7.037 7.037 0 0 0 3.791-.123 7.573 7.573 0 0 0 3.277-2.095 2.48 2.48 0 0 0 .606-1.637c0-.61-.216-1.198-.603-1.638l-2.222-2.527m-19.39-8.239a9.346 9.346 0 0 1 .157-4.198 8.763 8.763 0 0 1 1.959-3.611c.195-.215.426-.385.681-.501a1.924 1.924 0 0 1 1.606.001c.255.117.486.288.68.503l2.261 2.528m10.519-.503a9.339 9.339 0 0 1-1.225-4.666 9.15 9.15 0 0 1 .598-3.247 8.515 8.515 0 0 1 1.692-2.743.707.707 0 0 1 .498-.21.71.71 0 0 1 .498.21 7.985 7.985 0 0 1 1.5 2.463c.322.671.545 1.394.661 2.141.044.456.043.915-.002 1.37-.353 2.08-1.322 3.975-2.757 5.39 1.33-1.532 3.077-2.551 4.98-2.905a6.019 6.019 0 0 1 1.249.001 6.43 6.43 0 0 1 1.95.773 7.31 7.31 0 0 1 2.223 1.8.85.85 0 0 1 .191.546.855.855 0 0 1-.192.545c-1.462 1.565-3.425 2.438-5.467 2.434a7.321 7.321 0 0 1-4.214-1.395"/><path stroke="#1C186C" stroke-linecap="round" stroke-linejoin="round" stroke-width="4.64" d="M259.396 33.302c.231.29.493.55.78.771a6.8 6.8 0 0 0 2.637 1.12 6.544 6.544 0 0 0 2.826-.087 17.52 17.52 0 0 0 6.248-2.326c3.647-1.926 6.712-4.961 8.831-8.744 1.879-3.802 2.945-8.024 3.116-12.345 0-.3.335-2.546.12-2.696l-2.164-2.442c-.136-.236-2.166-.003-2.439.104-3.96.11-7.843 1.226-11.343 3.262-3.472 2.244-6.27 5.55-8.051 9.515-1.721 3.915-3.68 10.14-.561 13.868Z"/><path stroke="#1C186C" stroke-linecap="round" stroke-linejoin="round" stroke-width="4.64" d="M272.982 30.834c-.788-2.921-2.212-5.589-4.148-7.773-1.945-2.18-4.35-3.799-7.001-4.716"/><path fill="#201D67" d="M264.551 30.76c.182.208.4.373.641.485a1.807 1.807 0 0 0 1.527.002c.242-.112.46-.277.642-.484.267-.302.446-.683.516-1.096.07-.413.027-.839-.122-1.226a2.104 2.104 0 0 0-.718-.948 1.835 1.835 0 0 0-1.077-.356 1.83 1.83 0 0 0-1.077.354c-.32.231-.57.56-.72.947a2.324 2.324 0 0 0-.125 1.225c.069.413.248.795.513 1.097Z"/><path stroke="#1C186C" stroke-linecap="round" stroke-linejoin="round" stroke-width="4.64" d="M80.853 24.677 72.857.463 64.81 24.66"/><path stroke="#1C186C" stroke-linecap="round" stroke-linejoin="round" stroke-width="4.64" d="M60.787 25.747c.332 0 .625-.02.898-.063 2.147-.383 2.442-2.138 5.135-2.135 3.025.003 3.023 2.208 6.009 2.211 3.025.003 3.027-2.201 6.013-2.198 2.693.003 2.965 1.737 5.13 2.146.254.043.566.065.898.065"/><path stroke="#1C186C" stroke-linecap="round" stroke-linejoin="round" stroke-width="4.64" d="M62.793 29.046c.001-1.156.159-2.312.492-3.36 1.854-.383 2.09-2.138 4.393-2.136 2.596.003 2.593 2.208 5.15 2.21 2.596.003 2.598-2.201 5.154-2.198 2.303.002 2.555 1.736 4.39 2.144.31 1.05.485 2.205.484 3.361-.007 6.078-4.501 10.996-10.044 10.99-5.542-.006-10.026-4.934-10.02-11.012Zm.007-6.592 20.063.022m19.106 144.214c-5.406-.369-10.809-2.965-15.078-7.72-4.23-4.713-6.546-10.708-6.89-16.701"/><path stroke="#1C186C" stroke-linecap="round" stroke-linejoin="round" stroke-width="4.64" d="m77.78 140.876 2.4-.639 24.364-6.502c3.279-.874 6.145 2.34 5.321 5.977l-1.725 7.703-.118.492-1.51 6.697-.137.642-2.55 11.233-.627 2.739c-.588 2.631-2.913 4.32-5.293 3.889-5.854-1.055-11.354-4.014-15.74-8.899-4.367-4.841-6.995-10.943-7.944-17.429-.387-2.654 1.177-5.263 3.558-5.903Z"/><path stroke="#1C186C" stroke-linecap="round" stroke-linejoin="round" stroke-width="4.64" d="M92.486 147.739c-1.724-.002-3.124 1.549-3.126 3.464-.002 1.914 1.394 3.468 3.119 3.47 1.725.002 3.124-1.549 3.126-3.464.002-1.915-1.394-3.468-3.119-3.47Zm11.552 1.319c1.074-1.197 2.617-1.58 3.982-1.108l-1.961 8.73a4.103 4.103 0 0 1-2.028-1.223c-1.599-1.778-1.596-4.645.007-6.399Zm-2.446-12.203c.292 1.242-.003 2.611-.862 3.573-1.31 1.454-3.417 1.452-4.723-.005a3.631 3.631 0 0 1-.857-1.67m80.754-51.447 20.008-21.893c2.13-2.33 2.134-6.097.009-8.432-2.124-2.336-5.559-2.34-7.689-.009l-20.008 21.894c-2.13 2.33-2.134 6.097-.009 8.432s5.56 2.339 7.689.008Z"/><path stroke="#1C186C" stroke-linecap="round" stroke-linejoin="round" stroke-width="4.64" d="M191.72 62.497c-2.306 2.523-3.124 1.624-5.449 4.146-2.306 2.523-1.487 3.423-3.793 5.967-2.306 2.523-3.144 1.624-5.45 4.146-2.305 2.523-1.486 3.444-3.792 5.967m9.575 7.117 15.396-16.848c2.56-2.8 2.565-7.317.011-10.123l-24.619 26.94c2.534 2.827 6.671 2.832 9.212.03Zm-1.484-35.4L165.93 71.288c-2.559 2.8-2.564 7.316-.011 10.123l24.62-26.94c-2.534-2.828-6.672-2.832-9.212-.031Zm98.254 81.537 19.516.021c3.474.003 6.281 3.088 6.277 6.898l-.005 4.109-32.084-.035.004-4.109c.004-3.809 2.818-6.888 6.292-6.884Zm-5.307 17.587 30.094.032c1.658.002 3.007-1.473 3.009-3.292.002-1.819-1.343-3.297-3.002-3.299l-30.094-.033c-1.659-.001-3.007 1.474-3.009 3.293-.002 1.819 1.343 3.297 3.002 3.299Z"/><path stroke="#1C186C" stroke-linecap="round" stroke-linejoin="round" stroke-width="4.64" d="m288.267 171.171 2.069.002c8.294.009 15.016-7.346 15.025-16.442l.002-1.134-32.085-.035-.001 1.135c-.01 9.095 6.696 16.465 14.99 16.474Zm17.319-24.7c-.76-.9-1.305-2.12-2.73-2.122-1.425-.002-1.972 1.218-2.735 2.116m-12.861-.014c-.76-.9-1.306-2.12-2.73-2.122-1.444-.001-1.992 1.218-2.754 2.116m-6.439-2.104c1.425.001 1.97 1.222 2.73 2.121m18.346-.001c-.76-.9-1.305-2.12-2.73-2.122-1.425-.001-1.972 1.218-2.734 2.116"/></g></svg>