<svg xmlns="http://www.w3.org/2000/svg" width="209" height="206" fill="none"><rect width="206.709" height="205.202" x="1.139" y=".229" fill="#fff" stroke="#EDF2F7" stroke-width=".278" rx="16.62"/><path fill="#828282" d="M83.876 184.147v.471h-3.262v-.338l2.022-3.129h.468l-.503.905-1.336 2.091h2.611Zm-.63-2.996v4.515h-.573v-4.515h.573Zm2.522 4.515h-.943l.006-.487h.937c.322 0 .591-.067.806-.201.215-.137.376-.327.484-.571a2.1 2.1 0 0 0 .164-.862v-.276c0-.258-.03-.488-.093-.688a1.389 1.389 0 0 0-.273-.512 1.156 1.156 0 0 0-.44-.32 1.52 1.52 0 0 0-.592-.108h-1.018v-.49h1.018c.295 0 .565.05.809.149.244.097.454.239.63.425.177.184.314.407.409.67.095.26.142.554.142.88v.27c0 .327-.047.621-.142.884a1.81 1.81 0 0 1-1.057 1.092 2.33 2.33 0 0 1-.847.145Zm-.624-4.515v4.515h-.598v-4.515h.598Zm30.376 3.047-.459-.118.226-2.248h2.317v.53h-1.83l-.136 1.228c.082-.047.187-.092.313-.133.128-.041.275-.062.44-.062.209 0 .396.036.562.109.165.07.306.171.421.304.118.132.208.291.27.477.062.186.093.394.093.623a1.9 1.9 0 0 1-.09.599 1.35 1.35 0 0 1-.263.478 1.198 1.198 0 0 1-.447.313 1.633 1.633 0 0 1-.629.111c-.182 0-.355-.024-.518-.074a1.318 1.318 0 0 1-.434-.233 1.248 1.248 0 0 1-.311-.39 1.565 1.565 0 0 1-.148-.552h.545c.025.169.075.312.149.428a.738.738 0 0 0 .292.263.977.977 0 0 0 .425.087.879.879 0 0 0 .362-.071.72.72 0 0 0 .267-.205.915.915 0 0 0 .164-.322c.04-.127.059-.268.059-.425 0-.143-.019-.275-.059-.397a.914.914 0 0 0-.176-.32.782.782 0 0 0-.283-.211.91.91 0 0 0-.384-.077c-.192 0-.338.026-.437.077a1.678 1.678 0 0 0-.301.211Zm4.217 2.149h-.942l.006-.486h.936c.323 0 .592-.068.807-.202.215-.137.376-.327.484-.571a2.11 2.11 0 0 0 .164-.862v-.276c0-.258-.031-.488-.093-.688a1.394 1.394 0 0 0-.273-.512 1.148 1.148 0 0 0-.44-.319 1.504 1.504 0 0 0-.593-.109h-1.017v-.49h1.017c.296 0 .566.05.81.149.244.097.454.239.629.425.178.184.315.407.41.67.095.26.142.554.142.88v.27c0 .327-.047.621-.142.884a1.814 1.814 0 0 1-1.058 1.092c-.25.097-.532.145-.847.145Zm-.623-4.515v4.515h-.598v-4.515h.598Zm31.853-.006h.049v.487h-.049c-.304 0-.558.049-.763.149a1.247 1.247 0 0 0-.487.393c-.12.164-.207.348-.261.552a2.576 2.576 0 0 0-.077.624v.663c0 .201.024.379.071.534.048.153.113.282.196.388a.842.842 0 0 0 .279.238.71.71 0 0 0 .328.081.815.815 0 0 0 .354-.074.75.75 0 0 0 .26-.214.97.97 0 0 0 .165-.329c.037-.126.056-.265.056-.416 0-.134-.017-.263-.05-.387a1.027 1.027 0 0 0-.152-.335.725.725 0 0 0-.62-.32.9.9 0 0 0-.447.118 1.028 1.028 0 0 0-.338.304.82.82 0 0 0-.149.406l-.304-.003c.029-.231.083-.429.162-.592.08-.166.18-.3.297-.403a1.13 1.13 0 0 1 .401-.23c.148-.049.306-.074.471-.074.225 0 .42.042.583.127.163.085.298.198.403.341.106.141.183.3.233.478.051.175.077.356.077.542 0 .213-.03.413-.09.599s-.15.349-.27.49c-.117.14-.263.25-.437.329a1.461 1.461 0 0 1-.605.117c-.243 0-.456-.049-.638-.148a1.374 1.374 0 0 1-.453-.404 1.828 1.828 0 0 1-.27-.558 2.199 2.199 0 0 1-.09-.623v-.27c0-.318.032-.631.096-.936a2.5 2.5 0 0 1 .332-.832c.159-.248.379-.445.661-.592.281-.147.639-.22 1.076-.22Zm2.741 4.521h-.943l.007-.486h.936c.323 0 .591-.068.806-.202.216-.137.377-.327.484-.571.11-.246.165-.533.165-.862v-.276c0-.258-.031-.488-.093-.688a1.394 1.394 0 0 0-.273-.512 1.144 1.144 0 0 0-.441-.319 1.5 1.5 0 0 0-.592-.109h-1.017v-.49h1.017c.296 0 .565.05.809.149.244.097.454.239.63.425.178.184.314.407.409.67.095.26.143.554.143.88v.27c0 .327-.048.621-.143.884a1.837 1.837 0 0 1-.412.667 1.814 1.814 0 0 1-.645.425 2.33 2.33 0 0 1-.847.145Zm-.623-4.515v4.515h-.599v-4.515h.599Zm30.004 0v.323l-1.87 4.192h-.604l1.867-4.044h-2.444v-.471h3.051Zm2.025 4.515h-.942l.006-.486h.936c.323 0 .592-.068.807-.202.215-.137.376-.327.484-.571a2.11 2.11 0 0 0 .164-.862v-.276c0-.258-.031-.488-.093-.688a1.394 1.394 0 0 0-.273-.512 1.148 1.148 0 0 0-.44-.319 1.504 1.504 0 0 0-.593-.109h-1.017v-.49h1.017c.296 0 .566.05.81.149.244.097.453.239.629.425.178.184.314.407.41.67.095.26.142.554.142.88v.27c0 .327-.047.621-.142.884a1.814 1.814 0 0 1-1.058 1.092c-.25.097-.532.145-.847.145Zm-.623-4.515v4.515h-.598v-4.515h.598Z"/><rect width="27.774" height="19.659" x="30.242" y="174.903" fill="#E7E7E7" fill-opacity=".92" rx="9.83"/><path fill="#151515" d="M42.847 185.954v.698h-3.089v-.596l1.461-1.566a4.26 4.26 0 0 0 .347-.431 1.67 1.67 0 0 0 .183-.338.821.821 0 0 0-.01-.639.504.504 0 0 0-.2-.229.6.6 0 0 0-.323-.081.623.623 0 0 0-.354.099.63.63 0 0 0-.223.276c-.05.118-.074.251-.074.4h-.897c0-.268.065-.514.193-.738a1.41 1.41 0 0 1 .542-.536c.234-.135.511-.202.831-.202.317 0 .584.052.8.155.22.102.385.248.497.441.114.19.17.417.17.682 0 .149-.023.294-.07.437a1.979 1.979 0 0 1-.206.422 3.474 3.474 0 0 1-.316.422c-.124.142-.262.29-.412.443l-.785.881h1.935Zm2.038.698h-.983l.006-.726h.977c.244 0 .45-.055.617-.164a1.02 1.02 0 0 0 .378-.487 2.05 2.05 0 0 0 .13-.773v-.22c0-.231-.024-.435-.074-.611a1.218 1.218 0 0 0-.214-.443.895.895 0 0 0-.35-.27 1.158 1.158 0 0 0-.478-.093h-1.011v-.729h1.01c.303 0 .579.052.829.155.252.102.47.247.654.438.184.19.326.417.425.682.102.262.152.555.152.878v.213c0 .321-.05.613-.152.878a1.884 1.884 0 0 1-1.08 1.12 2.233 2.233 0 0 1-.836.152Zm-.456-4.516v4.516h-.93v-4.516h.93Z"/><path stroke="#6C5FBC" stroke-linecap="round" stroke-linejoin="round" stroke-width="1.988" d="M1.074 144.672c11.07 0 12.142 14.413 23.926 14.413 11.784 0 8.927-40.964 19.997-40.964s5-34.515 20.355-34.515 8.213 34.515 22.14 34.515c13.926 0 11.784-40.291 20.711-40.291 8.928 0 6.428 23.982 17.141 23.982 10.713 0 5.714-39.556 17.141-39.556 11.427 0 10.355 17.267 20.711 17.267 10.356 0 11.427 20.013 25.711 20.013 14.284 0 5.357 22.307 18.926 22.307"/><path fill="#C5BFED" stroke="#6C5FBC" stroke-width="2.22" d="M176.583 86.943c0 2.11-1.591 3.7-3.411 3.7s-3.411-1.59-3.411-3.7c0-2.108 1.591-3.699 3.411-3.699s3.411 1.59 3.411 3.7Z"/><rect width="25.649" height="11.908" x="172.556" y="65.046" fill="#6C5FBC" rx="5.954"/><path fill="#fff" d="M181.199 71.763c0 .192-.05.373-.15.543a1.147 1.147 0 0 1-.433.417c-.189.107-.413.17-.672.189v.449h-.355v-.455c-.37-.033-.668-.144-.893-.333-.226-.192-.343-.451-.35-.777h.832c.023.266.16.427.411.483v-1.06a4.912 4.912 0 0 1-.644-.2 1.041 1.041 0 0 1-.421-.322c-.119-.148-.178-.35-.178-.605 0-.322.115-.585.344-.788.233-.204.533-.32.899-.35v-.45h.355v.45c.356.03.639.137.85.322.214.185.334.44.36.766h-.838a.497.497 0 0 0-.116-.278.5.5 0 0 0-.256-.172v1.05c.278.07.496.138.655.205a.992.992 0 0 1 .422.316c.119.144.178.344.178.6Zm-2.043-1.71c0 .122.037.222.111.3a.835.835 0 0 0 .322.183v-.96a.521.521 0 0 0-.316.15.454.454 0 0 0-.117.327Zm.788 2.237a.553.553 0 0 0 .328-.172.461.461 0 0 0 .122-.322.387.387 0 0 0-.117-.294.871.871 0 0 0-.333-.183v.97Zm2-.2v-.61l1.815-2.598h.905v2.53h.488v.678h-.488v.788h-.777v-.788h-1.943Zm1.993-2.376-1.138 1.699h1.138v-1.698Zm1.71 1.088c0-.64.115-1.141.344-1.504.233-.362.618-.544 1.155-.544.536 0 .919.182 1.148.544.234.363.35.864.35 1.504 0 .644-.116 1.15-.35 1.516-.229.366-.612.55-1.148.55-.537 0-.922-.184-1.155-.55-.229-.367-.344-.872-.344-1.516Zm2.231 0c0-.273-.018-.503-.055-.688a.91.91 0 0 0-.211-.46c-.104-.119-.259-.178-.466-.178-.208 0-.365.059-.472.177a.963.963 0 0 0-.211.461 4.01 4.01 0 0 0-.05.688c0 .282.017.518.05.71a.894.894 0 0 0 .211.462c.107.114.264.171.472.171.207 0 .364-.057.471-.171a.894.894 0 0 0 .211-.461c.034-.193.05-.43.05-.71Zm2.256.938c.03.163.096.289.2.378.107.085.25.127.427.127.23 0 .396-.094.5-.283.104-.192.155-.514.155-.965a.837.837 0 0 1-.36.277c-.152.067-.317.1-.494.1a1.42 1.42 0 0 1-.644-.144 1.113 1.113 0 0 1-.45-.439 1.421 1.421 0 0 1-.166-.71c0-.41.122-.737.366-.977.244-.244.577-.366.999-.366.526 0 .896.168 1.11.505.218.337.328.843.328 1.52 0 .481-.043.876-.128 1.183-.081.307-.224.54-.427.7-.2.158-.474.238-.822.238a1.45 1.45 0 0 1-.699-.156 1.168 1.168 0 0 1-.444-.416 1.322 1.322 0 0 1-.172-.572h.721Zm.589-.999a.595.595 0 0 0 .455-.177c.111-.119.166-.278.166-.478 0-.218-.059-.386-.177-.505a.617.617 0 0 0-.472-.183c-.2 0-.359.063-.477.189a.684.684 0 0 0-.173.488c0 .196.056.357.167.483.115.122.285.183.511.183Z"/><path stroke="#6C5FBC" stroke-linecap="round" stroke-width=".585" d="M1.328 138.765h205.978M2.009 114.108h205.979M1.328 88.726h205.978" opacity=".09"/><g clip-path="url(#a)"><rect width="37.919" height="18.266" x="26.873" y="13.277" fill="#6C5FBC" rx="9.133"/><path fill="#fff" d="M43.1 19.986v4.424h-.581v-3.299l-1.47 3.3h-.41l-1.477-3.306v3.305h-.582v-4.424h.627l1.637 3.657 1.636-3.657h.62Zm.77 2.66c0-.358.072-.671.217-.94a1.578 1.578 0 0 1 1.445-.857c.307 0 .573.067.8.199.225.132.393.298.504.498v-.64h.588v3.504h-.588v-.652a1.388 1.388 0 0 1-.518.512c-.226.132-.49.198-.792.198-.312 0-.593-.077-.844-.23a1.614 1.614 0 0 1-.595-.646 2.01 2.01 0 0 1-.217-.946Zm2.966.006c0-.264-.053-.494-.16-.69a1.1 1.1 0 0 0-.434-.448 1.14 1.14 0 0 0-.595-.16c-.217 0-.416.052-.595.154a1.113 1.113 0 0 0-.428.447c-.107.197-.16.427-.16.69 0 .27.053.504.16.704.107.196.25.348.428.454.18.102.378.153.595.153.217 0 .416-.05.595-.153.183-.107.328-.258.434-.454.107-.2.16-.433.16-.697Zm1.872-2.314a.383.383 0 0 1-.281-.115.383.383 0 0 1-.115-.281c0-.111.038-.205.115-.282a.383.383 0 0 1 .28-.115c.108 0 .197.039.27.115.076.077.115.17.115.282a.38.38 0 0 1-.116.28.355.355 0 0 1-.268.116Zm.281.569v3.503h-.582v-3.503h.582Zm2.699-.064c.426 0 .771.13 1.035.39.265.256.397.627.397 1.112v2.065h-.576v-1.982c0-.349-.087-.615-.262-.799-.174-.187-.413-.28-.716-.28-.307 0-.552.095-.735.287-.179.192-.269.47-.269.837v1.937h-.581v-3.503h.581v.499a1.16 1.16 0 0 1 .467-.416c.2-.098.42-.147.659-.147Z"/><path fill="#828282" d="M83.683 19.636 82.3 24.41h-.7l-1.11-3.842-1.15 3.842-.692.007-1.336-4.78h.665l1.04 4.047 1.151-4.048h.7l1.095 4.035 1.048-4.035h.671Zm4.176 2.754c0 .118-.007.244-.02.376h-3c.022.37.148.66.376.87.233.206.514.309.843.309.269 0 .493-.062.67-.185.184-.128.311-.297.384-.507h.672c-.1.36-.302.655-.603.883-.302.224-.676.336-1.123.336-.357 0-.676-.08-.96-.24a1.71 1.71 0 0 1-.657-.678c-.16-.297-.24-.64-.24-1.027 0-.389.078-.729.233-1.02.155-.293.372-.517.65-.672.284-.16.608-.24.974-.24.356 0 .67.078.945.233.274.155.484.37.63.644.15.27.226.575.226.918Zm-.644-.13c0-.238-.052-.441-.157-.61a.991.991 0 0 0-.432-.39 1.287 1.287 0 0 0-.596-.138c-.315 0-.584.101-.808.302-.22.2-.345.48-.377.836h2.37Zm4.96.13c0 .118-.007.244-.02.376h-3c.022.37.148.66.376.87.233.206.514.309.843.309.27 0 .493-.062.671-.185a1.01 1.01 0 0 0 .384-.507h.67c-.1.36-.3.655-.602.883-.301.224-.676.336-1.123.336-.356 0-.676-.08-.96-.24a1.71 1.71 0 0 1-.657-.678c-.16-.297-.24-.64-.24-1.027 0-.389.078-.729.233-1.02.156-.293.373-.517.651-.672.283-.16.607-.24.973-.24.356 0 .671.078.945.233.274.155.484.37.63.644.15.27.226.575.226.918Zm-.644-.13c0-.238-.052-.441-.157-.61a.991.991 0 0 0-.432-.39 1.287 1.287 0 0 0-.596-.138c-.315 0-.584.101-.808.302-.22.2-.345.48-.377.836h2.37Zm3.632 2.15-1.473-1.657v1.657h-.623v-5.069h.623v2.98l1.445-1.664h.87l-1.767 1.87 1.774 1.883h-.85Zm2.12-5.069v5.07h-.623v-5.07h.624Zm4.365 1.316-2.26 5.52h-.645l.74-1.808-1.514-3.712h.692l1.178 3.041 1.165-3.041h.644Zm23.436-.987v4.74h-.624v-3.534l-1.575 3.534h-.439l-1.582-3.541v3.541h-.623v-4.74h.671l1.754 3.918 1.753-3.918h.665Zm2.762 4.802c-.351 0-.671-.08-.959-.24a1.747 1.747 0 0 1-.671-.678c-.16-.297-.24-.64-.24-1.027 0-.384.083-.722.247-1.014.169-.297.397-.523.685-.678.288-.16.61-.24.966-.24s.678.08.966.24c.287.155.513.379.678.671.169.292.253.633.253 1.02 0 .389-.087.731-.26 1.028-.169.292-.4.519-.692.678a1.99 1.99 0 0 1-.973.24Zm0-.548c.224 0 .434-.052.631-.157a1.18 1.18 0 0 0 .472-.473c.123-.21.185-.466.185-.767 0-.302-.059-.557-.178-.768a1.145 1.145 0 0 0-.466-.465 1.276 1.276 0 0 0-.623-.158c-.228 0-.438.053-.63.158a1.11 1.11 0 0 0-.452.465 1.58 1.58 0 0 0-.172.768c0 .306.055.564.165.774.114.21.265.367.452.472.187.1.393.151.616.151Zm4.642-3.336c.457 0 .827.14 1.11.418.283.274.424.671.424 1.192v2.212h-.616v-2.123c0-.374-.094-.66-.281-.856-.187-.201-.443-.302-.767-.302-.329 0-.591.103-.788.309-.192.205-.287.504-.287.897v2.075h-.624v-3.753h.624v.534c.123-.192.29-.34.5-.445.214-.105.449-.158.705-.158Zm3.382.582v2.213c0 .183.038.313.116.39.078.073.212.11.404.11h.459v.527h-.562c-.347 0-.607-.08-.781-.24-.173-.16-.26-.422-.26-.787V21.17h-.486v-.513h.486v-.946h.624v.946h.979v.513h-.979Zm2.426-1.829v5.07h-.623v-5.07h.623Zm4.364 1.316-2.26 5.52h-.644l.74-1.808-1.514-3.712h.692l1.178 3.041 1.164-3.041h.644Zm21.515-1.021-1.555 2.973v1.801h-.623v-1.8l-1.562-2.973h.692l1.178 2.418 1.178-2.418h.692Zm4.151 2.754c0 .118-.007.244-.021.376h-3c.023.37.148.66.377.87.233.206.514.309.842.309.27 0 .494-.062.672-.185.182-.128.31-.297.383-.507h.671c-.1.36-.301.655-.602.883-.302.224-.676.336-1.124.336-.356 0-.676-.08-.959-.24a1.713 1.713 0 0 1-.657-.678c-.16-.297-.24-.64-.24-1.027 0-.389.078-.729.233-1.02.155-.293.372-.517.651-.672.283-.16.607-.24.972-.24.357 0 .672.078.946.233.274.155.484.37.63.644.15.27.226.575.226.918Zm-.644-.13c0-.238-.053-.441-.158-.61a.988.988 0 0 0-.431-.39 1.288 1.288 0 0 0-.596-.138c-.315 0-.585.101-.808.302-.22.2-.345.48-.377.836h2.37Zm1.302.26c0-.384.078-.72.233-1.007.155-.292.368-.518.637-.678.274-.16.578-.24.911-.24.329 0 .614.07.856.212s.423.32.542.535v-.685h.63v3.753h-.63v-.698a1.497 1.497 0 0 1-.555.548 1.652 1.652 0 0 1-.85.212c-.333 0-.634-.082-.904-.247a1.731 1.731 0 0 1-.637-.691 2.157 2.157 0 0 1-.233-1.014Zm3.179.007c0-.283-.058-.53-.172-.74a1.179 1.179 0 0 0-.465-.48 1.226 1.226 0 0 0-.638-.17 1.194 1.194 0 0 0-1.095.644c-.115.21-.172.456-.172.739 0 .288.057.539.172.753.114.21.267.372.458.487.192.11.405.164.637.164.233 0 .446-.055.638-.164.196-.115.351-.277.465-.487.114-.214.172-.463.172-.746Zm2.375-1.26c.11-.215.265-.382.466-.5.205-.12.454-.179.746-.179v.644h-.164c-.699 0-1.048.38-1.048 1.137v2.041h-.623v-3.753h.623v.61Zm2.624-1.925v5.068h-.624v-5.069h.624Zm4.364 1.315-2.261 5.52h-.644l.74-1.808-1.514-3.712h.692l1.178 3.041 1.165-3.041h.644Z"/></g><defs><clipPath id="a"><rect width="159.389" height="18.266" x="26.873" y="13.277" fill="#fff" rx="9.133"/></clipPath></defs></svg>