<svg xmlns="http://www.w3.org/2000/svg" width="22" height="19" fill="none"><path fill="#323142" fill-rule="evenodd" d="M.021 6.663c0-3.388 2.972-5.996 6.46-5.996 1.799 0 3.381.843 4.517 1.934 1.135-1.09 2.717-1.934 4.515-1.934 3.489 0 6.46 2.608 6.46 5.996 0 2.32-.99 4.36-2.36 6.086-1.369 1.722-3.159 3.183-4.873 4.37-.655.454-1.317.873-1.923 1.181-.57.29-1.224.556-1.82.556-.595 0-1.25-.266-1.819-.556-.606-.308-1.268-.727-1.923-1.18-1.714-1.188-3.504-2.65-4.873-4.371-1.37-1.725-2.36-3.766-2.36-6.086Zm6.46-4.114c-2.608 0-4.578 1.918-4.578 4.114 0 1.76.747 3.4 1.952 4.915 1.207 1.519 2.831 2.859 4.472 3.995.62.43 1.205.796 1.705 1.05.537.274.848.351.966.351.117 0 .428-.077.965-.35.5-.255 1.085-.621 1.705-1.051 1.641-1.136 3.265-2.476 4.472-3.995 1.204-1.515 1.952-3.155 1.952-4.915 0-2.196-1.97-4.114-4.579-4.114-1.498 0-2.896.895-3.77 2.03a.94.94 0 0 1-1.491 0c-.874-1.135-2.272-2.03-3.77-2.03Z" clip-rule="evenodd"/></svg>